#N canvas 440 267 377 243 10;
#X floatatom 129 112 5 0 0 0 - - -;
#X msg 53 33 devices;
#X msg 129 52 open \$1;
#X obj 129 81 comport 0 9600;
#X obj 129 22 hradio 15 1 0 4 empty empty empty 0 -8 0 10 -262144 -1
-1 2;
#X text 4 -3 Click "devices" to see available ports;
#X text 193 18 <- Select your USB connection;
#X connect 1 0 3 0;
#X connect 2 0 3 0;
#X connect 3 0 0 0;
#X connect 4 0 2 0;
