#N canvas 307 99 261 262 10;
#X obj 92 26 tgl 25 0 empty empty empty 17 7 0 10 -262144 -1 -1 0 1
;
#X obj 92 72 metro 500;
#X obj 92 105 bng 15 250 50 0 empty empty empty 17 7 0 10 -262144 -1
-1;
#X obj 92 170 + 1;
#X floatatom 145 187 5 0 0 0 - - -;
#X msg 92 136 1;
#X text 122 30 Start/Stop;
#X connect 0 0 1 0;
#X connect 1 0 2 0;
#X connect 2 0 5 0;
#X connect 3 0 4 0;
#X connect 4 0 3 1;
#X connect 5 0 3 0;
