#N canvas 41 138 570 562 12;
#X obj 41 460 dac~;
#X obj 350 307 soundfiler;
#X floatatom 350 337 15 0 0 0 - - -;
#X obj 44 422 *~;
#X obj 105 402 hsl 100 20 0 1 0 0 empty empty empty -2 -8 0 10 -228856
-1 -1 8300 1;
#X text 211 401 volume;
#X floatatom 145 423 5 0 0 0 - - -;
#X obj 87 191 t b f;
#X floatatom 221 126 5 0 0 0 - - -;
#X obj 44 265 /;
#X obj 44 294 phasor~;
#X obj 48 107 hsl 100 20 0 2 0 0 empty empty empty -2 -8 0 10 -228856
-1 -1 4300 1;
#X floatatom 81 128 5 0 0 0 - - -;
#X floatatom 44 225 5 0 0 0 - - -;
#X obj 45 48 loadbang;
#X msg 170 108 0;
#X obj 221 67 bng 25 250 50 0 empty empty empty 17 7 0 10 -204786 -1
-1;
#X text 215 48 Start;
#X text 166 48 Stop;
#X obj 170 68 bng 25 250 50 0 empty empty empty 17 7 0 10 -261234 -1
-1;
#X obj 44 331 *~ 44100;
#X obj 349 368 / 44100;
#X msg 45 78 1;
#X obj 350 214 bng 25 250 50 0 empty empty empty 17 7 0 10 -204800
-1 -1;
#X obj 350 242 openpanel;
#X text 381 214 Open sound file;
#N canvas 0 22 450 278 (subpatch) 0;
#X array Sound_Array 81765 float 2;
#X coords 0 1 81765 -1 200 140 1;
#X restore 340 60 graph;
#X msg 351 273 read -resize \$1 Sound_Array;
#X obj 44 362 tabread~ Sound_Array;
#X obj 349 419 send samp_size;
#X obj 227 97 r samp_size;
#X obj 221 250 * 44100;
#X floatatom 371 392 5 0 0 0 - - -;
#X connect 1 0 2 0;
#X connect 2 0 21 0;
#X connect 3 0 0 0;
#X connect 3 0 0 1;
#X connect 4 0 3 1;
#X connect 4 0 6 0;
#X connect 7 0 13 0;
#X connect 7 1 9 1;
#X connect 8 0 7 0;
#X connect 8 0 31 0;
#X connect 9 0 10 0;
#X connect 10 0 20 0;
#X connect 11 0 12 0;
#X connect 11 0 13 0;
#X connect 13 0 9 0;
#X connect 14 0 22 0;
#X connect 15 0 7 0;
#X connect 16 0 8 0;
#X connect 19 0 15 0;
#X connect 20 0 28 0;
#X connect 21 0 29 0;
#X connect 21 0 32 0;
#X connect 22 0 11 0;
#X connect 23 0 24 0;
#X connect 24 0 27 0;
#X connect 27 0 1 0;
#X connect 28 0 3 0;
#X connect 30 0 8 0;
#X connect 31 0 20 1;
