#N canvas 925 240 797 486 10;
#X obj 304 10 gemhead;
#X obj 47 136 gemwin;
#X obj 19 50 tgl 15 0 empty empty empty 17 7 0 10 -262144 -1 -1 0 1
;
#X msg 113 21 create;
#X msg 55 21 destroy;
#X msg 115 49 dimen 800 600;
#X floatatom 370 77 3 0 360 0 - - -;
#X floatatom 403 77 3 0 360 0 - - -;
#X floatatom 337 77 3 0 360 0 - - -;
#X msg 124 72 title KissMe;
#X obj 304 207 pix_image;
#X obj 304 234 pix_texture;
#X floatatom 349 271 5 0 0 0 - - -;
#X msg 320 175 open julia.jpg;
#X obj 49 232 gemhead;
#X obj 49 262 world_light;
#X obj 120 101 tgl 15 0 empty empty empty 17 7 0 10 -262144 -1 -1 0
1;
#X msg 120 119 lighting \$1;
#X msg 189 198 draw line;
#X msg 231 221 draw fill;
#X obj 559 109 metro 100;
#X obj 559 71 tgl 25 0 empty empty empty 17 7 0 10 -204786 -1 -1 0
1;
#X obj 304 300 cube 1.4;
#X obj 304 99 rotateXYZ 26 23 0;
#X obj 370 45 r Count;
#X text 34 195 RGB Color;
#X msg 101 186 1 1 0;
#X msg 113 207 0 1 1;
#X msg 122 229 1 0 0;
#X obj 610 45 vsl 20 50 10 100 0 0 empty empty empty 0 -9 0 10 -262130
-1 -1 0 1;
#N canvas 1181 727 584 362 countMach 0;
#X obj 182 65 bng 15 250 50 0 empty empty empty 17 7 0 10 -262144 -1
-1;
#X obj 182 130 + 1;
#X floatatom 235 147 5 0 0 0 - - -;
#X msg 182 96 1;
#X obj 221 203 sel 10;
#X obj 221 232 s hlimit;
#X floatatom 182 175 5 0 0 0 - - -;
#X obj 246 87 r hlimit;
#X msg 246 113 0;
#X floatatom 326 190 5 0 0 0 - - -;
#X obj 182 282 outlet;
#X obj 182 29 inlet;
#X obj 235 29 inlet;
#X msg 235 66 0;
#X obj 343 32 inlet;
#X connect 0 0 3 0;
#X connect 1 0 2 0;
#X connect 1 0 6 0;
#X connect 2 0 1 1;
#X connect 3 0 1 0;
#X connect 4 0 5 0;
#X connect 6 0 4 0;
#X connect 6 0 10 0;
#X connect 7 0 8 0;
#X connect 8 0 2 0;
#X connect 9 0 4 1;
#X connect 11 0 0 0;
#X connect 12 0 13 0;
#X connect 13 0 2 0;
#X connect 14 0 4 1;
#X restore 555 250 pd countMach;
#X obj 520 150 bng 25 250 50 0 empty empty empty 17 7 0 10 -204786
-1 -1;
#X floatatom 555 280 5 0 0 0 - - -;
#X obj 589 219 bng 20 250 50 0 empty empty empty 17 7 0 10 -261234
-1 -1;
#X text 611 220 Reset;
#X obj 680 214 bng 15 250 50 0 empty empty empty 17 7 0 10 -262144
-1 -1;
#X floatatom 680 237 5 0 0 0 - - -;
#X text 466 152 One-shot;
#X text 670 251 Set Max Num 359;
#X obj 555 312 s Count;
#X obj 569 373 mCounter;
#X connect 0 0 23 0;
#X connect 2 0 1 0;
#X connect 3 0 1 0;
#X connect 4 0 1 0;
#X connect 5 0 1 0;
#X connect 6 0 23 2;
#X connect 7 0 23 3;
#X connect 8 0 23 1;
#X connect 9 0 1 0;
#X connect 10 0 11 0;
#X connect 11 0 22 0;
#X connect 12 0 22 1;
#X connect 13 0 10 0;
#X connect 14 0 15 0;
#X connect 16 0 17 0;
#X connect 17 0 1 0;
#X connect 18 0 22 0;
#X connect 19 0 22 0;
#X connect 20 0 30 0;
#X connect 21 0 20 0;
#X connect 23 0 10 0;
#X connect 24 0 6 0;
#X connect 26 0 15 1;
#X connect 27 0 15 1;
#X connect 28 0 15 1;
#X connect 29 0 20 1;
#X connect 30 0 32 0;
#X connect 31 0 30 0;
#X connect 32 0 39 0;
#X connect 33 0 30 1;
#X connect 35 0 36 0;
#X connect 36 0 30 2;
