#N canvas 901 808 450 300 10;
#N canvas 1181 727 584 362 countMach 0;
#X obj 182 65 bng 15 250 50 0 empty empty empty 17 7 0 10 -262144 -1
-1;
#X obj 182 130 + 1;
#X floatatom 235 147 5 0 0 0 - - -;
#X msg 182 96 1;
#X obj 221 203 sel 10;
#X obj 221 232 s hlimit;
#X floatatom 182 175 5 0 0 0 - - -;
#X obj 246 87 r hlimit;
#X msg 246 113 0;
#X floatatom 326 190 5 0 0 0 - - -;
#X obj 182 282 outlet;
#X obj 182 29 inlet;
#X obj 235 29 inlet;
#X msg 235 66 0;
#X obj 343 32 inlet;
#X connect 0 0 3 0;
#X connect 1 0 2 0;
#X connect 1 0 6 0;
#X connect 2 0 1 1;
#X connect 3 0 1 0;
#X connect 4 0 5 0;
#X connect 6 0 4 0;
#X connect 6 0 10 0;
#X connect 7 0 8 0;
#X connect 8 0 2 0;
#X connect 9 0 4 1;
#X connect 11 0 0 0;
#X connect 12 0 13 0;
#X connect 13 0 2 0;
#X connect 14 0 4 1;
#X restore 184 176 pd countMach;
#X obj 184 113 metro 500;
#X floatatom 184 206 5 0 0 0 - - -;
#X obj 125 79 inlet;
#X obj 184 80 inlet;
#X obj 253 80 inlet;
#X obj 303 80 inlet;
#X obj 235 46 inlet;
#X obj 184 235 outlet;
#X text 106 58 One-shot;
#X text 108 44 bang;
#X text 165 58 Start/Stop;
#X text 179 44 toggle;
#X text 235 29 speed;
#X text 242 63 set Max;
#X text 302 55 reset;
#X connect 0 0 2 0;
#X connect 1 0 0 0;
#X connect 2 0 8 0;
#X connect 3 0 0 0;
#X connect 4 0 1 0;
#X connect 5 0 0 2;
#X connect 6 0 0 1;
#X connect 7 0 1 1;
