#N canvas 519 162 659 387 12;
#X obj 23 22 cnv 15 100 70 empty empty empty 20 12 0 14 -195568 -66577
0;
#N canvas 0 22 454 304 gemwin 0;
#X obj 132 136 gemwin;
#X obj 67 89 outlet;
#X obj 67 10 inlet;
#X obj 67 41 route create;
#X msg 67 70 set destroy;
#X msg 142 68 set create;
#X msg 132 112 create \, 1;
#X msg 198 112 destroy;
#X msg 286 154 dimen 1024 768;
#X obj 232 190 loadbang;
#X msg 234 221 dimen 640 480;
#X connect 2 0 3 0;
#X connect 3 0 4 0;
#X connect 3 0 6 0;
#X connect 3 1 5 0;
#X connect 3 1 7 0;
#X connect 4 0 1 0;
#X connect 5 0 1 0;
#X connect 6 0 0 0;
#X connect 7 0 0 0;
#X connect 8 0 0 0;
#X connect 9 0 10 0;
#X connect 10 0 0 0;
#X restore 28 66 pd gemwin;
#X msg 28 42 create;
#X text 24 22 Create window:;
#X obj 247 47 gemhead 40;
#X obj 388 92 bng 15 250 50 0 empty empty empty 17 7 0 10 -262144 -1
-1;
#X obj 388 112 openpanel;
#X msg 388 139 open \$1;
#X obj 248 198 pix_film;
#X obj 252 240 pix_texture;
#X floatatom 298 297 4 0 0 0 - - -;
#X msg 189 161 auto \$1;
#X obj 189 139 tgl 15 0 empty empty empty 17 7 0 10 -262144 -1 -1 1
1;
#X msg 348 200 1;
#X obj 261 87 loadbang;
#X msg 261 114 open wizard.mov;
#X floatatom 342 297 4 0 0 0 - - -;
#X obj 254 327 rectangle 4 3;
#X text 160 116 Play video;
#X connect 1 0 2 0;
#X connect 2 0 1 0;
#X connect 4 0 8 0;
#X connect 5 0 6 0;
#X connect 6 0 7 0;
#X connect 7 0 8 0;
#X connect 8 0 9 0;
#X connect 8 2 13 0;
#X connect 9 0 17 0;
#X connect 10 0 17 1;
#X connect 11 0 8 0;
#X connect 12 0 11 0;
#X connect 13 0 8 1;
#X connect 14 0 15 0;
#X connect 15 0 8 0;
#X connect 16 0 17 2;
