#N canvas 336 128 659 387 12;
#X obj 49 57 gemhead;
#X obj 53 235 pix_texture;
#X obj 53 199 pix_video;
#X obj 508 290 cnv 15 100 70 empty empty empty 20 12 0 14 -195568 -66577
0;
#N canvas 0 22 454 304 gemwin 0;
#X obj 132 136 gemwin;
#X obj 67 89 outlet;
#X obj 67 10 inlet;
#X obj 67 41 route create;
#X msg 67 70 set destroy;
#X msg 142 68 set create;
#X msg 132 112 create \, 1;
#X msg 198 112 destroy;
#X msg 234 221 dimen 500 500;
#X msg 279 189 dimen 1024 768;
#X obj 279 156 loadbang;
#X connect 2 0 3 0;
#X connect 3 0 4 0;
#X connect 3 0 6 0;
#X connect 3 1 5 0;
#X connect 3 1 7 0;
#X connect 4 0 1 0;
#X connect 5 0 1 0;
#X connect 6 0 0 0;
#X connect 7 0 0 0;
#X connect 8 0 0 0;
#X connect 9 0 0 0;
#X connect 10 0 9 0;
#X restore 513 334 pd gemwin;
#X msg 513 310 create;
#X text 509 290 Create window:;
#X msg 92 118 device 0;
#N canvas 162 133 570 420 serin 0;
#X obj 205 60 cnv 20 20 20 empty \$0-open-canvas 0 4 10 0 16 -233017
-1 0;
#X obj 60 61 hradio 18 1 1 8 empty empty empty 0 -6 0 8 -225271 -1
-1 0;
#X obj 60 13 inlet;
#X msg 200 202 label \$1;
#X obj 200 180 makefilename %d;
#X obj 59 108 int;
#X obj 59 337 outlet;
#X msg 201 306 set \$1 \$2;
#X obj 59 266 trigger bang anything;
#X obj 201 286 list;
#X obj 200 225 send \$0-open-canvas;
#X msg 60 210 device \$1;
#X connect 1 0 5 0;
#X connect 2 0 1 0;
#X connect 3 0 10 0;
#X connect 4 0 3 0;
#X connect 5 0 4 0;
#X connect 5 0 11 0;
#X connect 7 0 6 0;
#X connect 8 0 6 0;
#X connect 8 1 9 0;
#X connect 9 0 7 0;
#X connect 11 0 8 0;
#X coords 0 -1 1 1 165 20 1 60 60;
#X restore 92 94 pd serin;
#X obj 333 58 gemhead 40;
#X obj 474 103 bng 15 250 50 0 empty empty empty 17 7 0 10 -262144
-1 -1;
#X obj 474 123 openpanel;
#X msg 474 150 open \$1;
#X obj 334 209 pix_film;
#X obj 338 251 pix_texture;
#X floatatom 384 308 4 0 0 0 - - -;
#X msg 275 172 auto \$1;
#X obj 275 150 tgl 15 0 empty empty empty 17 7 0 10 -262144 -1 -1 0
1;
#X obj 55 272 alpha;
#X obj 56 304 colorRGB 1 1 1 0.5;
#X obj 179 187 vsl 20 90 0 1 0 0 empty empty empty 0 -9 0 10 -204786
-1 -1 2900 1;
#X floatatom 204 261 5 0 0 0 - - -;
#X msg 434 211 1;
#X obj 56 336 rectangle 5 4;
#X obj 347 98 loadbang;
#X msg 347 125 open wizard.mov;
#X text 113 0 Click on the create/destroy message to see the video
mix. (You need a camera attached for this patch to work).;
#X floatatom 428 308 4 0 0 0 - - -;
#X obj 340 338 rectangle 4 3;
#X text 246 127 Play video;
#X connect 0 0 2 0;
#X connect 1 0 18 0;
#X connect 2 0 1 0;
#X connect 4 0 5 0;
#X connect 5 0 4 0;
#X connect 7 0 2 0;
#X connect 8 0 7 0;
#X connect 9 0 13 0;
#X connect 10 0 11 0;
#X connect 11 0 12 0;
#X connect 12 0 13 0;
#X connect 13 0 14 0;
#X connect 13 2 22 0;
#X connect 14 0 28 0;
#X connect 15 0 28 1;
#X connect 16 0 13 0;
#X connect 17 0 16 0;
#X connect 18 0 19 0;
#X connect 19 0 23 0;
#X connect 20 0 19 4;
#X connect 21 0 19 4;
#X connect 22 0 13 1;
#X connect 24 0 25 0;
#X connect 25 0 13 0;
#X connect 27 0 28 2;
